<svg xmlns="http://www.w3.org/2000/svg" version="1.1" xmlns:xlink="http://www.w3.org/1999/xlink" width="512" height="512" x="0" y="0" viewBox="0 0 512 512" style="enable-background:new 0 0 512 512" xml:space="preserve" class=""><g><path d="M437.676 247.956a193.899 193.899 0 0 0 6.402-49.522C444.078 92.984 359.872 7.5 256 7.5S67.922 92.984 67.922 198.434c0 17.13 2.235 33.727 6.402 49.522h363.352z" style="" fill="#555a66" data-original="#555a66"></path><path d="M256 81.745c-20.502 0-37.122-16.62-37.122-37.122S235.498 7.5 256 7.5C152.128 7.5 67.922 92.984 67.922 198.434c0 17.13 2.235 33.727 6.402 49.522H256V81.745z" style="" fill="#414952" data-original="#414952"></path><path d="M417.622 454.786c-21.23-69.102-85.56-119.337-161.622-119.337S115.608 385.684 94.378 454.786c-7.597 24.726 11.119 49.714 36.985 49.714h249.274c25.867 0 44.582-24.988 36.985-49.714z" style="" fill="#b674f2" data-original="#b674f2"></path><path d="M174.378 454.786C191.761 398.205 238.044 354.281 296 340.218a169.437 169.437 0 0 0-40-4.769c-76.063 0-140.392 50.235-161.622 119.337-7.597 24.726 11.119 49.714 36.985 49.714h80c-25.867 0-44.582-24.988-36.985-49.714z" style="" fill="#a260e5" data-original="#a260e5"></path><circle cx="365" cy="452.705" r="20" style="" fill="#636978" data-original="#636978"></circle><path d="m359.252 347.776-23.03-19.003H175.779l-23.03 19.003c-4.9 4.043-6.896 10.628-5.096 16.72 13.3 45.016 42.704 68.042 60.727 78.358 7.867 4.503 17.892 1.554 22.008-6.522L256 386.068l25.613 50.264c4.116 8.076 14.141 11.025 22.008 6.522 18.023-10.316 47.427-33.343 60.727-78.358 1.799-6.091-.197-12.677-5.096-16.72z" style="" fill="#c78ff5" data-original="#c78ff5"></path><path d="m138.905 137.11 124.761 110.845H384.5l22.728-45.092c-14.937-69.234-76.509-121.119-150.21-121.119-47.479.001-89.923 21.536-118.113 55.366z" style="" fill="#cfa388" data-original="#cfa388"></path><path d="m138.905 137.11 53.14 47.212c16.711-47.4 56.01-84.144 104.972-97.308a153.828 153.828 0 0 0-40-5.269c-47.478 0-89.922 21.535-118.112 55.365z" style="" fill="#b2876d" data-original="#b2876d"></path><path d="M334.867 214.302c-55.424 0-103.997-44.467-131.548-77.253-16.829-20.026-47.666-20.034-64.414.06-22.971 27.561-36.476 63.287-35.518 102.189 2.062 83.751 71.677 150.762 155.447 149.792 84.037-.974 151.861-69.4 151.861-153.668 0-11.173-1.203-22.063-3.468-32.559-21.639 7.304-46.249 11.439-72.36 11.439z" style="" fill="#ffeee5" data-original="#ffeee5"></path><path d="M183.339 235.423c0-33.114 10.474-63.781 28.289-88.871a320.626 320.626 0 0 1-8.309-9.502c-16.829-20.026-47.666-20.034-64.414.06-22.971 27.561-36.476 63.287-35.518 102.189 2.062 83.751 71.677 150.762 155.447 149.792a153.75 153.75 0 0 0 38.201-5.254c-65.486-17.599-113.696-77.372-113.696-148.414z" style="" fill="#ffdecf" data-original="#ffdecf"></path><path d="M464.5 302.956c22.091 0 40-17.909 40-40v-30c0-22.091-17.909-40-40-40s-40 17.909-40 40v30c0 22.091 17.909 40 40 40z" style="" fill="#555a66" data-original="#555a66"></path><path d="M424.5 337.956c22.091 0 40-17.909 40-40v-100c0-22.091-17.909-40-40-40s-40 17.909-40 40v100c0 22.091 17.909 40 40 40z" style="" fill="#707789" data-original="#707789"></path><path d="M424.5 297.956v-100c0-14.803 8.047-27.718 20-34.635a39.798 39.798 0 0 0-20-5.365c-22.091 0-40 17.909-40 40v100c0 22.091 17.909 40 40 40a39.798 39.798 0 0 0 20-5.365c-11.953-6.917-20-19.832-20-34.635z" style="" fill="#636978" data-original="#636978"></path><path d="M47.5 302.956c-22.091 0-40-17.909-40-40v-30c0-22.091 17.909-40 40-40s40 17.909 40 40v30c0 22.091-17.909 40-40 40z" style="" fill="#555a66" data-original="#555a66"></path><path d="M87.5 337.956c-22.091 0-40-17.909-40-40v-100c0-22.091 17.909-40 40-40s40 17.909 40 40v100c0 22.091-17.909 40-40 40z" style="" fill="#707789" data-original="#707789"></path><path d="M87.5 297.956v-100c0-14.803 8.047-27.718 20-34.635a39.798 39.798 0 0 0-20-5.365c-22.091 0-40 17.909-40 40v100c0 22.091 17.909 40 40 40a39.798 39.798 0 0 0 20-5.365c-11.953-6.917-20-19.832-20-34.635z" style="" fill="#636978" data-original="#636978"></path><path d="M440.259 159.966C422.726 72.955 346.893 7.5 256 7.5c-90.888 0-166.719 65.449-184.257 152.454M148.749 373.821c-25.333 20.815-44.506 48.853-54.372 80.965-7.597 24.726 11.119 49.714 36.985 49.714h249.274c25.867 0 44.582-24.988 36.985-49.714-9.891-32.193-29.136-60.291-54.563-81.122" style="stroke-width:15;stroke-linecap:round;stroke-linejoin:round;stroke-miterlimit:10;" fill="none" stroke="#000000" stroke-width="15" stroke-linecap="round" stroke-linejoin="round" stroke-miterlimit="10" data-original="#000000"></path><path d="m257.764 389.53 23.849 46.803c4.116 8.076 14.141 11.025 22.008 6.522 18.023-10.316 47.427-33.343 60.727-78.358a15.863 15.863 0 0 0-3.396-15.091M193.021 432.482a126.984 126.984 0 0 0 15.358 10.373c7.867 4.503 17.892 1.554 22.008-6.522l23.682-46.474M152.046 348.391a15.857 15.857 0 0 0-4.394 16.106c5.748 19.454 14.503 34.802 24.048 46.791M329.443 99.85c-21.578-11.554-46.236-18.105-72.426-18.105-47.478 0-89.923 21.535-118.112 55.365h0a153.795 153.795 0 0 0-20.99 32.908M395.606 168.956c-9.925-20.66-24.333-38.759-41.963-53.034" style="stroke-width:15;stroke-linecap:round;stroke-linejoin:round;stroke-miterlimit:10;" fill="none" stroke="#000000" stroke-width="15" stroke-linecap="round" stroke-linejoin="round" stroke-miterlimit="10" data-original="#000000"></path><path d="M125.175 314.233c27.269 45.344 77.256 75.51 133.66 74.857 54.534-.632 102.24-29.668 129.016-73.006M464.5 302.956c22.091 0 40-17.909 40-40v-30c0-22.091-17.909-40-40-40" style="stroke-width:15;stroke-linecap:round;stroke-linejoin:round;stroke-miterlimit:10;" fill="none" stroke="#000000" stroke-width="15" stroke-linecap="round" stroke-linejoin="round" stroke-miterlimit="10" data-original="#000000"></path><path d="M424.5 337.956h0c22.091 0 40-17.909 40-40v-100c0-22.091-17.909-40-40-40h0c-22.091 0-40 17.909-40 40v100c0 22.091 17.909 40 40 40zM47.5 302.956h0c-22.091 0-40-17.909-40-40v-30c0-22.091 17.909-40 40-40M87.5 337.956h0c-22.091 0-40-17.909-40-40v-100c0-22.091 17.909-40 40-40h0c22.091 0 40 17.909 40 40v100c0 22.091-17.909 40-40 40zM424.5 337.956v60.279a40 40 0 0 1-22.111 35.777l-19.501 9.75M382.786 209.471c-15.101 3.136-31.203 4.831-47.919 4.831-55.424 0-103.997-44.467-131.548-77.253-16.829-20.026-47.666-20.034-64.414.06" style="stroke-width:15;stroke-linecap:round;stroke-linejoin:round;stroke-miterlimit:10;" fill="none" stroke="#000000" stroke-width="15" stroke-linecap="round" stroke-linejoin="round" stroke-miterlimit="10" data-original="#000000"></path><circle cx="365" cy="452.705" r="20" style="stroke-width:15;stroke-linecap:round;stroke-linejoin:round;stroke-miterlimit:10;" fill="none" stroke="#000000" stroke-width="15" stroke-linecap="round" stroke-linejoin="round" stroke-miterlimit="10" data-original="#000000"></circle><ellipse cx="176.443" cy="273.558" rx="29.355" ry="23.377" style="" fill="#ffa1ac" data-original="#ffa1ac"></ellipse><ellipse cx="335.557" cy="273.558" rx="29.355" ry="23.377" style="" fill="#ffa1ac" data-original="#ffa1ac"></ellipse><path d="M193.551 239.055v12M318.449 239.055v12M239.536 250.698c4.003 4.594 9.892 7.501 16.464 7.501 6.572 0 12.461-2.907 16.464-7.501" style="stroke-width:15;stroke-linecap:round;stroke-linejoin:round;stroke-miterlimit:10;" fill="none" stroke="#000000" stroke-width="15" stroke-linecap="round" stroke-linejoin="round" stroke-miterlimit="10" data-original="#000000"></path></g></svg>