<svg xmlns="http://www.w3.org/2000/svg" version="1.1" xmlns:xlink="http://www.w3.org/1999/xlink" width="512" height="512" x="0" y="0" viewBox="0 0 512 512" style="enable-background:new 0 0 512 512" xml:space="preserve" class=""><g><path d="M504.5 474.195c0 13.74-11.14 24.87-24.87 24.87-60.14.4-112.43-10.63-154.39-32.79-24.976-26.425-11.13-51.291 12.77-49.87 32.54 20.2 78.21 32.92 141.62 32.92 13.73 0 24.87 11.13 24.87 24.87z" style="" fill="#00c172" data-original="#00c172" class=""></path><path d="M325.24 466.275c-70.24-37.11-111.49-105.4-112.02-203.43 0-13.74 11.14-24.88 24.87-24.88 13.74 0 24.88 11.14 24.88 24.88 0 54.95 15.68 116.71 75.04 153.56-13.09 8.27-20.59 31.11-12.77 49.87z" style="" fill="#00a65b" data-original="#00a65b"></path><path d="M197.657 203.136S138.479 317.399 69.633 317.399c-34.178 0-61.926-27.614-61.977-61.792-.033-22.066 11.497-41.44 28.863-52.421C19.12 192.255 7.533 172.916 7.5 150.85c-.051-34.178 27.614-61.977 61.792-61.977 69.187.001 128.365 114.263 128.365 114.263z" style="" fill="#00c172" data-original="#00c172" class=""></path><path d="M197.657 203.037S256.835 88.774 325.681 88.774c34.178 0 61.926 27.614 61.977 61.792.033 22.066-11.497 41.44-28.863 52.422 17.399 10.931 28.987 30.269 29.02 52.335.051 34.178-27.614 61.977-61.792 61.977-69.188 0-128.366-114.263-128.366-114.263z" style="" fill="#00ce8e" data-original="#00ce8e"></path><path d="M311.87 74.725c0 68.91-113.37 127.9-114.25 128.36-44.655-36.325-59.959-144.442-.06-161.14 10.93-17.39 30.27-28.98 52.33-29.02 34.18-.05 61.98 27.62 61.98 61.8z" style="" fill="#60daa8" data-original="#60daa8"></path><path d="M197.62 203.085c-.01 0-114.28-59.18-114.28-128.02 0-34.18 27.62-61.93 61.8-61.98 22.06-.03 41.44 11.5 52.42 28.86-39.93 35.97-26.87 127.58.06 161.14z" style="" fill="#00ce8e" data-original="#00ce8e"></path><path d="M311.97 331.115c0 34.17-27.61 61.92-61.79 61.97-22.07.04-41.44-11.49-52.42-28.86-63.061 3.856-60.593-114.03-.1-161.09.03-.04.05-.05.05-.05s114.26 59.18 114.26 128.03z" style="" fill="#60daa8" data-original="#60daa8"></path><path d="M197.76 364.225c-10.93 17.4-30.27 28.99-52.34 29.02-34.18.05-61.98-27.61-61.98-61.79 0-68.29 111.31-126.83 114.21-128.34-36.72 48.28-46.71 138.5.11 161.11z" style="" fill="#00ce8e" data-original="#00ce8e"></path><path d="M197.707 203.082S311.97 262.26 311.97 331.106c0 34.178-27.614 61.926-61.792 61.977-22.066.033-41.44-11.497-52.422-28.863-10.931 17.399-30.269 28.987-52.335 29.02-34.178.051-61.977-27.614-61.977-61.792 0-69.188 114.263-128.366 114.263-128.366zM124.862 203.032h145.689M197.707 261.326V144.739M93.242 41.447a61.751 61.751 0 0 0-9.897 33.611c0 68.846 114.263 128.024 114.263 128.024S311.87 143.904 311.87 74.717c0-34.178-27.799-61.843-61.977-61.792-22.066.033-41.405 11.62-52.335 29.02-10.982-17.367-30.355-28.896-52.422-28.863a61.592 61.592 0 0 0-25.397 5.5" style="stroke-width:15;stroke-linecap:round;stroke-linejoin:round;stroke-miterlimit:10;" fill="none" stroke="#000000" stroke-width="15" stroke-linecap="round" stroke-linejoin="round" stroke-miterlimit="10" data-original="#000000" class=""></path><path d="M400.743 441.254c-52.449-12.023-86.011-36.474-106.862-66.354" style="stroke-width:15;stroke-linecap:round;stroke-linejoin:round;stroke-miterlimit:10;" fill="none" stroke="#000000" stroke-width="15" stroke-linecap="round" stroke-linejoin="round" stroke-miterlimit="10" data-original="#000000" class=""></path><path d="M246.366 392.969c43.043 70.855 125.578 106.817 233.259 106.096 13.738 0 24.874-11.136 24.874-24.874s-11.136-24.874-24.874-24.874c-15.871 0-30.626-.799-44.346-2.311M85.297 90.852c-5.258-1.285-10.601-1.983-16.005-1.983-34.178 0-61.843 27.799-61.792 61.977.033 22.066 11.62 41.405 29.02 52.335-17.367 10.982-28.896 30.355-28.863 52.422.051 34.178 27.799 61.792 61.977 61.792 5.33 0 10.602-.688 15.793-1.952M310.018 315.313c5.258 1.285 10.601 1.982 16.005 1.982 34.178 0 61.843-27.799 61.792-61.977-.033-22.066-11.62-41.405-29.02-52.335 17.367-10.982 28.896-30.355 28.863-52.422-.051-34.178-27.799-61.792-61.977-61.792-5.33 0-10.602.688-15.793 1.952" style="stroke-width:15;stroke-linecap:round;stroke-linejoin:round;stroke-miterlimit:10;" fill="none" stroke="#000000" stroke-width="15" stroke-linecap="round" stroke-linejoin="round" stroke-miterlimit="10" data-original="#000000" class=""></path></g></svg>