<svg xmlns="http://www.w3.org/2000/svg" version="1.1" xmlns:xlink="http://www.w3.org/1999/xlink" width="512" height="512" x="0" y="0" viewBox="0 0 512 512" style="enable-background:new 0 0 512 512" xml:space="preserve" class=""><g><path d="m280.569 22.773 4.332 8.778a27.4 27.4 0 0 0 20.629 14.988l9.687 1.408c22.472 3.265 31.445 30.882 15.184 46.732l-7.01 6.833a27.4 27.4 0 0 0-7.88 24.251l1.655 9.648c3.839 22.382-19.653 39.449-39.753 28.882l-8.664-4.555a27.4 27.4 0 0 0-25.499 0l-8.664 4.555c-20.1 10.567-43.592-6.501-39.753-28.882l1.655-9.648a27.398 27.398 0 0 0-7.88-24.251l-7.01-6.833c-16.261-15.851-7.288-43.467 15.184-46.732l9.687-1.408a27.397 27.397 0 0 0 20.629-14.988l4.332-8.778c10.051-20.364 39.089-20.364 49.139 0z" style="" fill="#fff04a" data-original="#fff04a" class=""></path><path d="M261.714 87.5c0-21.903 8.806-41.747 23.066-56.194l-4.211-8.533c-10.05-20.363-39.087-20.363-49.137 0l-4.332 8.778a27.4 27.4 0 0 1-20.629 14.988l-9.687 1.408c-22.472 3.265-31.445 30.882-15.184 46.732l7.01 6.833a27.4 27.4 0 0 1 7.88 24.251l-1.655 9.648c-3.839 22.382 19.653 39.449 39.753 28.882l8.664-4.555a27.4 27.4 0 0 1 25.499 0l8.664 4.555c11.07 5.82 23.166 3.255 31.161-3.96-27.645-12.599-46.862-40.471-46.862-72.833z" style="" fill="#ffda45" data-original="#ffda45" class=""></path><path d="m446.364 136.735 4.332 8.778a27.4 27.4 0 0 0 20.629 14.988l9.687 1.408c22.472 3.265 31.445 30.882 15.184 46.732l-7.01 6.833a27.4 27.4 0 0 0-7.88 24.251l1.655 9.648c3.839 22.382-19.653 39.449-39.753 28.882l-8.664-4.555a27.4 27.4 0 0 0-25.499 0l-8.664 4.555c-20.1 10.567-43.592-6.501-39.753-28.882l1.655-9.648a27.398 27.398 0 0 0-7.88-24.251l-7.01-6.833c-16.261-15.851-7.288-43.467 15.184-46.732l9.687-1.408a27.397 27.397 0 0 0 20.629-14.988l4.332-8.778c10.051-20.364 39.089-20.364 49.139 0z" style="" fill="#fff04a" data-original="#fff04a" class=""></path><path d="M427.509 201.462c0-21.903 8.806-41.747 23.066-56.194l-4.211-8.533c-10.05-20.363-39.087-20.363-49.137 0l-4.332 8.778a27.4 27.4 0 0 1-20.629 14.988l-9.687 1.408c-22.472 3.265-31.445 30.882-15.184 46.732l7.01 6.833a27.4 27.4 0 0 1 7.88 24.251l-1.655 9.648c-3.839 22.382 19.653 39.449 39.753 28.882l8.664-4.555a27.4 27.4 0 0 1 25.499 0l8.664 4.555c11.07 5.82 23.166 3.255 31.161-3.96-27.645-12.599-46.862-40.471-46.862-72.833z" style="" fill="#ffda45" data-original="#ffda45" class=""></path><path d="m114.774 136.735 4.332 8.778a27.4 27.4 0 0 0 20.629 14.988l9.687 1.408c22.472 3.265 31.445 30.882 15.184 46.732l-7.01 6.833a27.4 27.4 0 0 0-7.88 24.251l1.655 9.648c3.839 22.382-19.653 39.449-39.753 28.882l-8.664-4.555a27.4 27.4 0 0 0-25.499 0l-8.664 4.555c-20.1 10.567-43.592-6.501-39.753-28.882l1.655-9.648a27.398 27.398 0 0 0-7.88-24.251l-7.01-6.833c-16.261-15.851-7.288-43.467 15.184-46.732l9.687-1.408a27.397 27.397 0 0 0 20.629-14.988l4.332-8.778c10.051-20.364 39.089-20.364 49.139 0z" style="" fill="#fff04a" data-original="#fff04a" class=""></path><path d="M95.919 201.462c0-21.903 8.806-41.747 23.066-56.194l-4.211-8.533c-10.05-20.363-39.087-20.363-49.137 0l-4.332 8.778a27.4 27.4 0 0 1-20.629 14.988l-9.687 1.408C8.516 165.174-.457 192.79 15.804 208.64l7.01 6.833a27.4 27.4 0 0 1 7.88 24.251l-1.655 9.648c-3.839 22.382 19.653 39.449 39.753 28.882l8.664-4.555a27.4 27.4 0 0 1 25.499 0l8.664 4.555c11.07 5.82 23.166 3.255 31.161-3.96-27.644-12.598-46.861-40.47-46.861-72.832z" style="" fill="#ffda45" data-original="#ffda45" class=""></path><path d="M370.959 354.178c0-29.85-24.199-54.049-54.049-54.049h-53.315l29.624-42.745c6.939-10.013 6.439-23.66-1.772-32.659-9.727-10.66-26.026-11.288-36.525-1.814l-73.6 66.415a122.044 122.044 0 0 0-40.281 90.612v2.501c0 67.412 54.648 122.06 122.06 122.06h53.81c29.85 0 54.049-24.198 54.049-54.049v-96.272z" style="" fill="#ffeee5" data-original="#ffeee5"></path><path d="m263.595 300.129 29.624-42.745c6.939-10.013 6.439-23.66-1.773-32.659-9.727-10.66-26.026-11.288-36.525-1.813l-73.599 66.415a122.032 122.032 0 0 0-40.281 90.609v2.503c0 67.412 54.648 122.061 122.06 122.061h.492c-29.849-.002-54.047-24.199-54.047-54.049v-96.273c0-29.85 24.199-54.049 54.049-54.049z" style="" fill="#ffdecf" data-original="#ffdecf" class=""></path><path d="m280.569 22.773 4.332 8.778a27.4 27.4 0 0 0 20.629 14.988l9.687 1.408c22.472 3.265 31.445 30.882 15.184 46.732l-7.01 6.833a27.4 27.4 0 0 0-7.88 24.251l1.655 9.648c3.839 22.382-19.653 39.449-39.753 28.882l-8.664-4.555a27.4 27.4 0 0 0-25.499 0l-8.664 4.555c-20.1 10.567-43.592-6.501-39.753-28.882l1.655-9.648a27.398 27.398 0 0 0-7.88-24.251l-7.01-6.833c-16.261-15.851-7.288-43.467 15.184-46.732l9.687-1.408a27.397 27.397 0 0 0 20.629-14.988l4.332-8.778c10.051-20.364 39.089-20.364 49.139 0zM392.894 145.513l4.332-8.778c10.05-20.363 39.087-20.363 49.137 0l4.332 8.778a27.4 27.4 0 0 0 20.629 14.988l9.687 1.408c22.472 3.265 31.445 30.882 15.184 46.732l-7.01 6.833a27.4 27.4 0 0 0-7.88 24.251l1.655 9.648c3.839 22.382-19.653 39.449-39.753 28.882l-8.664-4.555a27.4 27.4 0 0 0-25.499 0l-8.664 4.555c-20.1 10.567-43.592-6.501-39.753-28.882l1.655-9.648a27.398 27.398 0 0 0-7.88-24.251l-7.01-6.833c-16.261-15.851-7.288-43.467 15.184-46.732l6.347-.922M114.774 136.735l4.332 8.778a27.4 27.4 0 0 0 20.629 14.988l9.687 1.408c22.472 3.265 31.445 30.882 15.184 46.732l-7.01 6.833a27.4 27.4 0 0 0-7.88 24.251l1.655 9.648c3.839 22.382-19.653 39.449-39.753 28.882l-8.664-4.555a27.4 27.4 0 0 0-25.499 0l-8.664 4.555c-20.1 10.567-43.592-6.501-39.753-28.882l1.655-9.648a27.398 27.398 0 0 0-7.88-24.251l-7.01-6.833c-16.261-15.851-7.288-43.467 15.184-46.732l9.687-1.408a27.397 27.397 0 0 0 20.629-14.988l4.332-8.778c10.051-20.364 39.089-20.364 49.139 0zM141.671 394.92c6.251 61.549 58.231 109.58 121.43 109.58h53.81c29.85 0 54.049-24.198 54.049-54.049v-96.273c0-29.85-24.199-54.049-54.049-54.049h-53.315l29.624-42.745c6.939-10.013 6.439-23.66-1.772-32.659-9.727-10.66-26.026-11.288-36.525-1.814l-73.6 66.415a122.04 122.04 0 0 0-39.356 75.611" style="stroke-width:15;stroke-linecap:round;stroke-linejoin:round;stroke-miterlimit:10;" fill="none" stroke="#000000" stroke-width="15" stroke-linecap="round" stroke-linejoin="round" stroke-miterlimit="10" data-original="#000000" class=""></path></g></svg>