<svg xmlns="http://www.w3.org/2000/svg" version="1.1" xmlns:xlink="http://www.w3.org/1999/xlink" width="512" height="512" x="0" y="0" viewBox="0 0 512 512" style="enable-background:new 0 0 512 512" xml:space="preserve" class=""><g><circle cx="256" cy="267" r="245" fill="#fee45a" opacity="1" data-original="#fee45a" class=""></circle><path fill="#fdb4ba" d="M67.914 424C112.856 477.783 180.43 512 256 512s143.144-34.217 188.086-88z" opacity="1" data-original="#fdb4ba"></path><path fill="#fed402" d="m125.457 399-4.102 25h322.731a245.957 245.957 0 0 0 18.35-25z" opacity="1" data-original="#fed402" class=""></path><g fill="#c8effe"><path d="M147.996 14H83c-3.309 0-6 2.691-6 6v167.236c.375-.835.748-1.676 1.135-2.489.25-.527.755-.568.904-.568s.653.041.904.567c9.297 19.563 15.388 45.448 17.151 72.89l1.916.332c7.245-16.78 16.119-31.666 25.664-43.047a.954.954 0 0 1 .751-.355c.403 0 .886.252.997.805 5.279 26.427 3.666 59.146-4.543 92.133-2.646 10.633-5.938 21.048-9.782 30.958l-.528 1.361H136c2.206 0 4 1.794 4 4V344h7.996c3.309 0 6-2.691 6-6V20c0-3.309-2.692-6-6-6zM429 344c3.309 0 6-2.691 6-6V20c0-3.309-2.691-6-6-6h-64.996c-3.309 0-6 2.691-6 6v318c0 3.309 2.691 6 6 6zM339.004 344c3.309 0 6-2.691 6-6V20c0-3.309-2.691-6-6-6H172.996c-3.309 0-6 2.691-6 6v318c0 3.309 2.691 6 6 6z" fill="#c8effe" opacity="1" data-original="#c8effe" class=""></path></g><path fill="#99e6fc" d="M80.846 184.317c9.174 19.303 15.417 44.795 17.246 73.254a221.753 221.753 0 0 1 2.908-6.449V15H83a5 5 0 0 0-5 5v163.463c.949-.569 2.305-.284 2.846.854z" opacity="1" data-original="#99e6fc"></path><g fill="#fff"><path d="M274 100h-28c-5.5 0-10-4.5-10-10s4.5-10 10-10h28c5.5 0 10 4.5 10 10s-4.5 10-10 10zM278 54c0 5.5 4.5 10 10 10h57.004V44H288c-5.5 0-10 4.5-10 10zM149.628 72.018h-49.033c-5.646 0-10.489 4.417-10.593 10.062-.105 5.751 4.525 10.447 10.253 10.447h53.741V71.031a10.207 10.207 0 0 1-4.368.987zM138.615 41.063c-.105 5.751 4.525 10.446 10.253 10.446h.42c1.676 0 3.277.397 4.708 1.092V31h-4.787c-5.647 0-10.49 4.417-10.594 10.063zM208.536 92.527c5.646 0 10.489-4.417 10.593-10.062.105-5.751-4.525-10.447-10.253-10.447h-4.937c-5.663 0-10.254-4.591-10.254-10.254s4.591-10.254 10.254-10.254h16.751c5.646 0 10.489-4.417 10.593-10.062.104-5.753-4.527-10.448-10.254-10.448h-54.033v61.527zM391.687 29.808c-5.205 0-9.67 4.072-9.765 9.276-.097 5.302 4.172 9.63 9.452 9.63h4.552c5.221 0 9.453 4.232 9.453 9.453s-4.232 9.453-9.453 9.453h-15.442c-5.205 0-9.67 4.072-9.765 9.276a9.404 9.404 0 0 0 1.47 5.232c8.297-6.894 18.653-10.668 29.517-10.668 12.14 0 23.593 4.678 32.295 13.18v1.886h1V29.808z" fill="#ffffff" opacity="1" data-original="#ffffff"></path></g><path fill="#8bc727" d="M231.505 344h79.193c2.684-3.278 4.302-7.458 4.302-12 0-10.45-8.55-19-19-19h-11.593c.058-.659.093-1.325.093-2 0-12.426-10.074-22.5-22.5-22.5a22.402 22.402 0 0 0-12.618 3.869C243.995 283.743 234.42 278 223.5 278c-11.499 0-21.507 6.366-26.704 15.763 5.27 3.922 8.704 10.178 8.704 17.237 0 .604-.185 3-.185 3H218c9.925 0 18 8.075 18 18 0 3.74-1.163 7.343-3.363 10.418z" opacity="1" data-original="#8bc727"></path><path fill="#81b823" d="M206.5 311c0 .675-.035 1.341-.093 2h6.605c.252-15.586 12.187-28.331 27.434-29.847A30.322 30.322 0 0 0 223.5 278c-11.128 0-20.861 5.962-26.187 14.863 5.57 4.097 9.187 10.693 9.187 18.137z" opacity="1" data-original="#81b823"></path><g fill="#97d729"><path d="M172.996 344h59.702c2.684-3.278 4.302-7.458 4.302-12 0-10.45-8.55-19-19-19h-11.593c.058-.659.093-1.325.093-2 0-12.426-10.074-22.5-22.5-22.5a22.402 22.402 0 0 0-12.618 3.869 30.68 30.68 0 0 0-4.387-5.482V338a6.008 6.008 0 0 0 6.001 6zM145.5 278a30.36 30.36 0 0 0-18.987 6.64 266.443 266.443 0 0 1-4.633 22.863c-2.646 10.633-5.938 21.048-9.782 30.958l-.528 1.361H136c2.206 0 4 1.794 4 4V344h7.996c3.309 0 6-2.691 6-6v-58.786A30.461 30.461 0 0 0 145.5 278z" fill="#97d729" opacity="1" data-original="#97d729"></path></g><g fill="#fdb4ba"><path d="M367.987 263.916c8.197 6.831 18.738 10.943 30.242 10.943 14.86 0 28.107-6.864 36.771-17.587V84.222c-8.543-8.494-20.295-13.761-33.295-13.761-12.681 0-24.186 5.002-32.676 13.129a47.434 47.434 0 0 0-11.025-7.873v194.586a47.395 47.395 0 0 0 9.983-6.387zM289.078 117.737a47.17 47.17 0 0 0 2.542 15.289c-20.62 5.089-35.913 23.7-35.913 45.892 0 21.815 14.78 40.169 34.87 45.619a48.006 48.006 0 0 0-.108 3.047c0 26.11 21.166 47.276 47.276 47.276 2.47 0 4.893-.201 7.26-.566V71.264a47.408 47.408 0 0 0-8.651-.803c-26.11 0-47.276 21.166-47.276 47.276z" fill="#fdb4ba" opacity="1" data-original="#fdb4ba"></path></g><path fill="#fe99a0" d="M289.078 117.737a47.17 47.17 0 0 0 2.542 15.289c-20.62 5.089-35.913 23.7-35.913 45.892 0 21.815 14.78 40.169 34.87 45.619a48.006 48.006 0 0 0-.108 3.047c0 26.11 21.166 47.276 47.276 47.276 2.123 0 4.212-.144 6.26-.416v-3.159c-17.161-7.088-29.243-23.979-29.243-43.7v-.031c.002-1.764-1.09-3.324-2.759-3.893-18.614-6.353-32.003-23.98-32.003-44.744 0-20.838 13.485-38.52 32.203-44.812 1.986-.667 3.12-2.767 2.607-4.798a47.142 47.142 0 0 1-1.438-11.57c0-20.25 12.738-37.511 30.633-44.245v-2.381a47.045 47.045 0 0 0-7.651-.65c-26.11 0-47.276 21.166-47.276 47.276z" opacity="1" data-original="#fe99a0"></path><ellipse cx="326.724" cy="122.748" fill="#fee45a" rx="8.369" ry="8.283" transform="rotate(-45 326.726 122.817)" opacity="1" data-original="#fee45a" class=""></ellipse><ellipse cx="408.565" cy="156.091" fill="#ffffff" rx="8.369" ry="8.283" transform="rotate(-45 408.567 156.177)" opacity="1" data-original="#ffffff"></ellipse><ellipse cx="423.72" cy="235.658" fill="#fee45a" rx="8.369" ry="8.283" transform="rotate(-45 423.709 235.753)" opacity="1" data-original="#fee45a" class=""></ellipse><ellipse cx="326.724" cy="233.385" fill="#fee45a" rx="8.369" ry="8.283" transform="rotate(-45 326.706 233.463)" opacity="1" data-original="#fee45a" class=""></ellipse><ellipse cx="293.382" cy="171.247" fill="#ffffff" rx="8.369" ry="8.283" transform="rotate(-45 293.372 171.313)" opacity="1" data-original="#ffffff"></ellipse><ellipse cx="407.049" cy="107.593" fill="#fee45a" rx="8.369" ry="8.283" transform="rotate(-45 407.06 107.675)" opacity="1" data-original="#fee45a" class=""></ellipse><g fill="#c57a44"><path d="M336.766 170.399c-4.532-2.619-10.324-1.065-12.94 3.466a9.471 9.471 0 0 0 3.466 12.939l17.713 10.23v-21.876zM377.806 239.624l42.225-35.593c4-3.372 4.509-9.347 1.138-13.348-3.372-3.998-9.346-4.509-13.347-1.137l-30.016 25.301v-54.393a9.472 9.472 0 0 0-18.944 0v22.706l-.857-.495v21.877l.857.495v136.038a5.996 5.996 0 0 0 5.143 2.925h13.802V239.624z" fill="#c57a44" opacity="1" data-original="#c57a44"></path></g><path fill="#fef0ae" d="M444 0H68a5 5 0 0 0-5 5v233.159c2.853-19.926 8.011-38.313 15-53.116V20a5 5 0 0 1 5-5h64.996a5 5 0 0 1 5 5v318a5 5 0 0 1-5 5h-8.082c.056.266.087.54.087.822V358h304a5 5 0 0 0 5-5V5A5.002 5.002 0 0 0 444 0zm-99.996 338a5 5 0 0 1-5 5H172.996a5 5 0 0 1-5-5V20a5 5 0 0 1 5-5h166.009a5 5 0 0 1 5 5v318zM434 338a5 5 0 0 1-5 5h-64.996a5 5 0 0 1-5-5V20a5 5 0 0 1 5-5H429a5 5 0 0 1 5 5z" opacity="1" data-original="#fef0ae" class=""></path><path fill="#78a91f" d="M112.646 339.822c3.939-10.02 7.388-20.765 10.204-32.078 8.521-34.241 9.637-67.126 4.554-92.57-.328-1.641-2.42-2.178-3.495-.896-16.186 19.299-30.46 48.341-38.968 82.529-3.672 14.754-5.961 29.251-6.979 43.015z" opacity="1" data-original="#78a91f"></path><path fill="#8bc727" d="M90.281 339.822c5.317-19.027 8.381-41.201 8.381-64.899 0-35.409-6.812-67.452-17.816-90.606-.721-1.518-2.893-1.518-3.615 0-11.004 23.154-17.816 55.197-17.816 90.606 0 23.698 3.064 45.872 8.381 64.899z" opacity="1" data-original="#8bc727"></path><path fill="#81b823" d="M72.445 294.093a269.53 269.53 0 0 1-.691-19.171c0-30.447 5.047-58.389 13.454-80.347-1.37-3.578-2.82-7.014-4.362-10.259-.721-1.518-2.893-1.518-3.615 0-9.174 19.303-15.417 44.795-17.246 73.254 4.845 11.222 9.071 23.483 12.46 36.523z" opacity="1" data-original="#81b823"></path><path fill="#78a91f" d="M45.432 339.822h34.684c-1.018-13.763-3.307-28.261-6.979-43.015-8.508-34.187-22.782-63.23-38.968-82.529-1.075-1.282-3.168-.745-3.495.896-5.083 25.443-3.967 58.329 4.554 92.57 2.816 11.313 6.266 22.059 10.204 32.078z" opacity="1" data-original="#78a91f"></path><path fill="#fe7701" d="M30.467 362.76c13.628 32.054 33.863 60.617 59.034 83.95h23.88a5 5 0 0 0 4.934-4.19l13.089-79.759H30.467z" opacity="1" data-original="#fe7701" class=""></path><path fill="#fe9738" d="M136 338.823H21.707a243.155 243.155 0 0 0 9.156 24.937H136a5 5 0 0 0 5-5v-14.937a5 5 0 0 0-5-5z" opacity="1" data-original="#fe9738"></path><path fill="#fe860a" d="M53 358.76v-14.937a5 5 0 0 1 5-5H21.707a243.155 243.155 0 0 0 9.156 24.937H58a5 5 0 0 1-5-5z" opacity="1" data-original="#fe860a"></path><circle cx="246.32" cy="241.32" r="9.767" fill="#9857bd" opacity="1" data-original="#9857bd"></circle><path fill="#814aa0" d="M244.507 238.408c-2.797-4.024-3.063-7.54-1.705-9.656-9.671-6.197-16.082 2.31-6.249 12.568-9.833 10.258-3.422 18.765 6.249 12.568-1.358-2.117-1.092-5.633 1.705-9.656a5.084 5.084 0 0 0 0-5.824z" opacity="1" data-original="#814aa0"></path></g></svg>