<svg xmlns="http://www.w3.org/2000/svg" version="1.1" xmlns:xlink="http://www.w3.org/1999/xlink" width="512" height="512" x="0" y="0" viewBox="0 0 512 512" style="enable-background:new 0 0 512 512" xml:space="preserve" class=""><g><path fill="#c8effe" d="M256.001 11C120.817 10.999 10.75 121.279 11 256.463c.077 41.481 10.475 80.536 28.744 114.754l30.983 15.442C188.866 445.54 326.192 452.548 449.711 406 481.855 364.55 501 312.514 501 256c0-135.309-109.69-244.999-244.999-245z" opacity="1" data-original="#c8effe" class=""></path><path fill="#78a91f" d="M307.586 348.706C301.533 341.549 292.492 337 282.385 337c-4 0-7.834.713-11.382 2.016-1.908-16.816-16.175-29.883-33.501-29.883-8.639 0-16.516 3.252-22.484 8.594-5.967-5.342-13.844-8.594-22.484-8.594-18.626 0-33.725 15.099-33.725 33.725 0 3.66.591 7.18 1.669 10.48a33.532 33.532 0 0 0-9.606 3.732V407H301.17c.585-20.665 2.782-40.474 6.416-58.294z" opacity="1" data-original="#78a91f"></path><path fill="#f2fbff" d="M314.029 37.473h-72.161c-5.663 0-10.254 4.591-10.254 10.254s4.591 10.254 10.254 10.254h.76c5.663 0 10.254 4.591 10.254 10.254s-4.591 10.254-10.254 10.254h-10.434a58.093 58.093 0 0 1 6.518 20.509h63.164c5.663 0 10.254-4.591 10.254-10.254s-4.591-10.254-10.254-10.254h-15.192c-5.663 0-10.254-4.591-10.254-10.254s4.591-10.254 10.254-10.254h27.345c5.663 0 10.254-4.591 10.254-10.254s-4.591-10.255-10.254-10.255zM462.967 80.404h38.779c5.663 0 10.254-4.591 10.254-10.254 0-5.663-4.591-10.254-10.254-10.254h-98.027c-5.646 0-10.489 4.417-10.593 10.062-.105 5.751 4.525 10.447 10.253 10.447h14.852c5.646 0 10.489 4.417 10.593 10.062.105 5.751-4.525 10.447-10.253 10.447h-27.005c-5.646 0-10.489 4.417-10.593 10.062-.105 5.751 4.525 10.447 10.253 10.447h71.821c5.646 0 10.49-4.417 10.593-10.063.105-5.751-4.525-10.446-10.253-10.446h-.76c-5.727 0-10.358-4.695-10.253-10.447.103-5.646 4.947-10.063 10.593-10.063zM363.746 129H255.464c-1.754 0-3.429.427-4.91 1.184 16.895 10.255 28.191 28.808 28.191 50.016 0 3.524-.317 6.974-.914 10.327h36.961c5.646 0 10.49-4.417 10.593-10.063.105-5.751-4.525-10.446-10.253-10.446h-.419c-5.646 0-10.49-4.417-10.593-10.063-.105-5.751 4.526-10.446 10.253-10.446h49.033c5.646 0 10.489-4.417 10.593-10.062.104-5.752-4.526-10.447-10.253-10.447z" opacity="1" data-original="#f2fbff"></path><path fill="#8bc727" d="M333.83 407c-.984-34.805-6.501-66.133-14.953-89.537-.631-1.747-3.122-1.747-3.753 0-8.453 23.404-13.97 54.732-14.953 89.537z" opacity="1" data-original="#8bc727" class=""></path><path fill="#81b823" d="M310.204 406c.923-29.91 5.195-57.206 11.799-79.058a188.9 188.9 0 0 0-3.126-9.479c-.631-1.747-3.122-1.747-3.753 0-8.371 23.179-13.86 54.133-14.921 88.537z" opacity="1" data-original="#81b823"></path><path fill="#78a91f" d="M358.882 407c-.856-41.259-6.407-78.424-14.967-106.112-.583-1.885-3.246-1.885-3.829 0-8.56 27.689-14.112 64.854-14.967 106.112z" opacity="1" data-original="#78a91f"></path><path fill="#8bc727" d="M383.83 407c-.984-34.805-6.501-66.133-14.953-89.537-.631-1.747-3.122-1.747-3.753 0-8.453 23.404-13.969 54.732-14.953 89.537z" opacity="1" data-original="#8bc727" class=""></path><path fill="#81b823" d="M360.204 406c.923-29.91 5.195-57.206 11.799-79.058a188.9 188.9 0 0 0-3.126-9.479c-.631-1.747-3.122-1.747-3.753 0-8.371 23.179-13.86 54.133-14.921 88.537z" opacity="1" data-original="#81b823"></path><path fill="#78a91f" d="M408.772 407c-1.121-29.464-6.604-55.959-14.933-75.821-.68-1.622-2.998-1.622-3.679 0-8.329 19.862-13.812 46.358-14.933 75.821z" opacity="1" data-original="#78a91f"></path><path fill="#81b823" d="M106.856 355.532c9.762-30.043-33.661-30.043-23.899 0-9.762-30.043-44.891-4.52-19.335 14.048-11.24-8.167-20.13-4.751-23.878 1.636A245.24 245.24 0 0 0 63.056 407h64.817v-63.83c-6.842-3.48-16.566-1.337-21.017 12.362z" opacity="1" data-original="#81b823"></path><path fill="#8bc727" d="M217.191 392.284c25.556-18.568-9.573-44.091-19.335-14.048 9.762-30.043-33.661-30.043-23.899 0-4.923-15.151-16.295-16.167-23.084-11.072V407h90.649c5.787-10.967-6.217-27.877-24.331-14.716zM278.746 180.2c0-26.697-17.89-49.202-42.331-56.22a58.449 58.449 0 0 0 2.756-17.768c0-32.31-26.192-58.502-58.502-58.502-15.692 0-29.929 6.19-40.435 16.246C129.727 53.9 115.49 47.71 99.798 47.71c-32.31 0-58.502 26.192-58.502 58.502a58.4 58.4 0 0 0 3.145 18.919C18.925 131.429 0 154.46 0 181.921c0 26.995 18.29 49.707 43.15 56.453a59.562 59.562 0 0 0-.134 3.77c0 32.31 26.192 58.502 58.502 58.502 14.236 0 27.281-5.09 37.424-13.542 10.144 8.453 23.188 13.542 37.424 13.542 32.31 0 58.502-26.192 58.502-58.502 0-1.763-.092-3.504-.245-5.228 25.357-6.41 44.123-29.369 44.123-56.716z" opacity="1" data-original="#8bc727" class=""></path><path fill="#81b823" d="M74.271 242.143v-.038a5.09 5.09 0 0 0-3.462-4.834c-23.008-7.873-39.555-29.674-39.555-55.351 0-24.433 14.982-45.36 36.258-54.113 4.365-1.796 6.847-6.408 5.995-11.05a58.348 58.348 0 0 1-.958-10.546c0-26.892 18.152-49.531 42.867-56.372a58.393 58.393 0 0 0-15.619-2.13c-32.31 0-58.502 26.192-58.502 58.502a58.4 58.4 0 0 0 3.145 18.919C18.925 131.429 0 154.46 0 181.921c0 26.995 18.29 49.707 43.15 56.453a59.562 59.562 0 0 0-.134 3.77c0 32.31 26.192 58.502 58.502 58.502a58.51 58.51 0 0 0 15.646-2.122c-24.728-6.833-42.893-29.478-42.893-56.381z" opacity="1" data-original="#81b823"></path><path fill="#d88a55" d="m85.211 192.843 41.662 24.06V407h25V262.546l55.722-46.969c5.279-4.449 5.951-12.335 1.501-17.614s-12.334-5.95-17.614-1.501l-39.61 33.388v-71.78c0-6.903-5.597-12.5-12.5-12.5s-12.5 5.597-12.5 12.5v29.963l-29.159-16.84c-5.979-3.452-13.624-1.405-17.076 4.573-3.451 5.98-1.404 13.625 4.574 17.077z" opacity="1" data-original="#d88a55"></path><path fill="#c57a44" d="m85.211 192.843 41.662 24.06V406h9.961V215.106c0-3.572-1.906-6.873-4.999-8.66l-36.663-21.173c-5.51-3.183-7.669-9.925-5.271-15.643-3.743.475-7.23 2.618-9.263 6.137-3.452 5.979-1.405 13.624 4.573 17.076z" opacity="1" data-original="#c57a44"></path><path fill="#97d729" d="M62.289 406c44.818 57.793 114.915 95 193.711 95s148.893-37.207 193.711-95z" opacity="1" data-original="#97d729"></path><circle cx="240.32" cy="344.32" r="9.767" fill="#ffffff" opacity="1" data-original="#ffffff"></circle><circle cx="310.68" cy="256.68" r="9.767" fill="#fe646f" opacity="1" data-original="#fe646f"></circle><circle cx="427.68" cy="300.68" r="9.767" fill="#9857bd" opacity="1" data-original="#9857bd"></circle><path fill="#78a91f" d="M265.207 444.925h-11.572a7.5 7.5 0 0 1 0-15h11.572a7.5 7.5 0 0 1 0 15zM317.756 467.5h-11.571a7.5 7.5 0 0 1 0-15h11.571a7.5 7.5 0 0 1 0 15zM377 445.994h-11.571a7.5 7.5 0 0 1 0-15H377a7.5 7.5 0 0 1 0 15zM146.571 439.5H135a7.5 7.5 0 0 1 0-15h11.571a7.5 7.5 0 0 1 0 15zM204.368 462.023h-11.571a7.5 7.5 0 0 1 0-15h11.571a7.5 7.5 0 0 1 0 15z" opacity="1" data-original="#78a91f"></path><circle cx="186" cy="103" r="11" fill="#fedf30" opacity="1" data-original="#fedf30"></circle><circle cx="103" cy="115" r="11" fill="#fdb4ba" opacity="1" data-original="#fdb4ba"></circle><circle cx="189" cy="260" r="11" fill="#fdb4ba" opacity="1" data-original="#fdb4ba"></circle><circle cx="199" cy="165" r="11" fill="#f2fbff" opacity="1" data-original="#f2fbff"></circle><circle cx="98" cy="235" r="11" fill="#f2fbff" opacity="1" data-original="#f2fbff"></circle><circle cx="47" cy="176" r="11" fill="#fedf30" opacity="1" data-original="#fedf30"></circle></g></svg>