<svg xmlns="http://www.w3.org/2000/svg" version="1.1" xmlns:xlink="http://www.w3.org/1999/xlink" width="512" height="512" x="0" y="0" viewBox="0 0 512 512" style="enable-background:new 0 0 512 512" xml:space="preserve" class=""><g><path fill="#fee45a" d="M481.469 352c12.63-29.625 19.598-62.242 19.531-96.496-.27-135.814-109.824-244.85-245.638-244.503C120.345 11.345 11 120.903 11 256c0 34.073 6.962 66.518 19.531 96a760.432 760.432 0 0 0 450.938 0z" opacity="1" data-original="#fee45a" class=""></path><path fill="#97d729" d="M218.144 140.811c-23.73-23.73-56.892-32.271-87.417-25.635a5.067 5.067 0 0 0-3.879 3.879c-6.636 30.525 1.905 63.687 25.635 87.417s56.892 32.271 87.417 25.635a5.067 5.067 0 0 0 3.879-3.879c6.636-30.525-1.905-63.687-25.635-87.417z" opacity="1" data-original="#97d729" class=""></path><path fill="#8bc727" d="M215.691 214.626c-16.864-3.831-32.885-12.305-46.017-25.437-20.74-20.74-29.876-48.684-27.419-75.776a95.236 95.236 0 0 0-11.528 1.764 5.065 5.065 0 0 0-3.879 3.879c-6.636 30.525 1.905 63.687 25.635 87.417 22.267 22.267 52.838 31.159 81.743 26.688z" opacity="1" data-original="#8bc727" class=""></path><path fill="#97d729" d="M293.856 140.811c23.73-23.73 56.892-32.271 87.417-25.635a5.067 5.067 0 0 1 3.879 3.879c6.636 30.525-1.905 63.687-25.635 87.417s-56.892 32.271-87.417 25.635a5.067 5.067 0 0 1-3.879-3.879c-6.636-30.525 1.905-63.687 25.635-87.417z" opacity="1" data-original="#97d729" class=""></path><path fill="#8bc727" d="M385.153 119.056a5.067 5.067 0 0 0-3.879-3.879c-30.525-6.636-63.688 1.905-87.417 25.635-22.267 22.267-31.159 52.838-26.688 81.744l17.842-17.842c3.715-17.239 12.261-33.646 25.659-47.044 20.855-20.855 48.995-29.974 76.228-27.374a95.585 95.585 0 0 0-1.745-11.24z" opacity="1" data-original="#8bc727" class=""></path><path fill="#78a91f" d="M248.5 247.436v58.781c2.489-.142 4.989-.217 7.5-.217s5.011.075 7.5.217v-58.781l66.854-66.853a7.5 7.5 0 0 0-10.607-10.606L256 233.723l-63.747-63.747a7.5 7.5 0 0 0-10.606 0 7.5 7.5 0 0 0 0 10.606z" opacity="1" data-original="#78a91f"></path><path fill="#d88a55" d="M357.573 353c-24.117-29.305-60.657-48-101.573-48s-77.456 18.695-101.573 48z" opacity="1" data-original="#d88a55"></path><path fill="#c57a44" d="M196.894 352c19.896-23.697 47.991-40.278 79.924-45.358A132.398 132.398 0 0 0 256 305c-40.447 0-76.616 18.272-100.737 47z" opacity="1" data-original="#c57a44"></path><path fill="#97d729" d="M390.238 255.349c-16.839-16.839-40.276-23.051-61.988-18.644a5.018 5.018 0 0 0-3.913 3.913c-4.407 21.711 1.805 45.149 18.644 61.988s40.276 23.051 61.988 18.644a5.018 5.018 0 0 0 3.913-3.913c4.407-21.712-1.805-45.15-18.644-61.988z" opacity="1" data-original="#97d729" class=""></path><path fill="#8bc727" d="M384.792 307.766a68.084 68.084 0 0 1-22.064-14.782c-15.717-15.717-22.172-37.184-19.379-57.629a68.724 68.724 0 0 0-15.098 1.35 5.016 5.016 0 0 0-3.913 3.913c-4.407 21.711 1.805 45.149 18.644 61.988 15.353 15.353 36.193 21.868 56.208 19.558z" opacity="1" data-original="#8bc727" class=""></path><path fill="#97d729" d="M444.728 255.349c16.839-16.839 40.276-23.051 61.988-18.644a5.018 5.018 0 0 1 3.913 3.913c4.407 21.711-1.805 45.149-18.644 61.988s-40.276 23.051-61.988 18.644a5.018 5.018 0 0 1-3.913-3.913c-4.407-21.712 1.805-45.15 18.644-61.988z" opacity="1" data-original="#97d729" class=""></path><path fill="#8bc727" d="M510.628 240.618a5.016 5.016 0 0 0-3.913-3.913c-21.711-4.407-45.149 1.805-61.988 18.644-15.353 15.353-21.867 36.192-19.558 56.207l19.499-19.499a68.105 68.105 0 0 1 14.346-21.041c14.512-14.512 33.925-21.123 52.91-19.855a68.411 68.411 0 0 0-1.296-10.543z" opacity="1" data-original="#8bc727" class=""></path><path fill="#78a91f" d="M409.983 332.958V353h15v-20.043l47.498-47.498a7.5 7.5 0 0 0-10.607-10.606l-44.391 44.391-44.391-44.391a7.5 7.5 0 0 0-10.607 10.606z" opacity="1" data-original="#78a91f"></path><path fill="#97d729" d="M67.272 255.349c-16.839-16.839-40.276-23.051-61.988-18.644a5.018 5.018 0 0 0-3.913 3.913c-4.407 21.711 1.805 45.149 18.644 61.988s40.276 23.051 61.988 18.644a5.018 5.018 0 0 0 3.913-3.913c4.407-21.712-1.805-45.15-18.644-61.988z" opacity="1" data-original="#97d729" class=""></path><path fill="#8bc727" d="M51.118 297.057a68.386 68.386 0 0 1-14.246-10.929c-13.964-13.964-20.612-32.466-19.965-50.758a68.77 68.77 0 0 0-11.623 1.334 5.018 5.018 0 0 0-3.913 3.913c-4.407 21.711 1.805 45.149 18.644 61.988 15.354 15.354 36.193 21.868 56.208 19.558z" opacity="1" data-original="#8bc727" class=""></path><path fill="#97d729" d="M121.762 255.349c16.839-16.839 40.276-23.051 61.988-18.644a5.018 5.018 0 0 1 3.913 3.913c4.407 21.711-1.805 45.149-18.644 61.988s-40.276 23.051-61.988 18.644a5.018 5.018 0 0 1-3.913-3.913c-4.407-21.712 1.805-45.15 18.644-61.988z" opacity="1" data-original="#97d729" class=""></path><path fill="#8bc727" d="M187.663 240.618a5.016 5.016 0 0 0-3.913-3.913c-21.711-4.407-45.149 1.805-61.988 18.644-15.352 15.352-21.866 36.188-19.558 56.201l22.302-22.297a68.122 68.122 0 0 1 13.51-19.237c13.995-13.995 32.549-20.642 50.881-19.96a68.79 68.79 0 0 0-1.234-9.438z" opacity="1" data-original="#8bc727" class=""></path><path fill="#78a91f" d="M87.017 332.957V353h15v-20.043l47.498-47.498a7.5 7.5 0 0 0 0-10.606 7.5 7.5 0 0 0-10.606 0l-44.392 44.383-44.392-44.383a7.5 7.5 0 0 0-10.606 0 7.5 7.5 0 0 0 0 10.606z" opacity="1" data-original="#78a91f"></path><path fill="#f6a96c" d="M30.531 352C67.875 439.594 154.764 501 256 501s188.125-61.406 225.469-149z" opacity="1" data-original="#f6a96c" class=""></path><path fill="#d88a55" d="M263.22 462.5h-14.44a7.5 7.5 0 0 1 0-15h14.44a7.5 7.5 0 0 1 0 15zM407 390.5h-14.44c-4.143 0-7.5-3.358-7.5-7.5s3.357-7.5 7.5-7.5H407c4.143 0 7.5 3.358 7.5 7.5s-3.357 7.5-7.5 7.5zM119.44 390.5H105a7.5 7.5 0 0 1 0-15h14.44a7.5 7.5 0 0 1 0 15z" opacity="1" data-original="#d88a55"></path><path fill="#ffffff" d="M333.971 430.686h-14.44c-4.143 0-7.5-3.358-7.5-7.5s3.357-7.5 7.5-7.5h14.44a7.5 7.5 0 0 1 0 15zM192.47 430.686h-14.44a7.5 7.5 0 0 1 0-15h14.44a7.5 7.5 0 0 1 0 15z" opacity="1" data-original="#ffffff" class=""></path><path fill="#d88a55" d="M263.22 390.5h-14.44a7.5 7.5 0 0 1 0-15h14.44a7.5 7.5 0 0 1 0 15z" opacity="1" data-original="#d88a55"></path></g></svg>